<svg width="110" height="28" viewBox="0 0 110 28" fill="none" xmlns="http://www.w3.org/2000/svg">
<g clip-path="url(#clip0_66_1167)">
<path d="M68.3389 9.0247V12.5441H72.0091V9.0247C72.0091 6.07093 74.4098 3.6702 77.3636 3.6702C80.3174 3.6702 82.7181 6.07093 82.7181 9.0247V14.3792H77.3636V18.0494H86.3883V9.0247C86.3883 4.04728 82.3536 -1.52588e-05 77.3636 -1.52588e-05C72.3736 -1.52588e-05 68.3389 4.04728 68.3389 9.0247Z" fill="white"/>
<path d="M51.1068 -1.52588e-05V3.6702H58.221C59.1888 3.6702 59.9807 4.46207 59.9807 5.4299C59.9807 6.39773 59.1888 7.18959 58.221 7.18959H45.5889V18.062H49.2591V10.8724H54.6262H54.6513C56.1093 10.8724 57.4417 11.4757 58.3969 12.4435C59.3648 13.4114 59.9681 14.7563 59.9681 16.2269V18.062H63.6383V16.2269C63.6383 13.8136 62.6956 11.6265 61.1496 10.0051C62.6453 9.03727 63.6383 7.35299 63.6383 5.44247C63.6509 2.43842 61.225 -1.52588e-05 58.221 -1.52588e-05H51.1068Z" fill="white"/>
<path d="M28.2932 -1.52588e-05C25.2891 -1.52588e-05 22.8633 2.43842 22.8633 5.4299C22.8633 6.81251 23.3786 8.06944 24.2208 9.0247C23.3786 9.97996 22.8633 11.2369 22.8633 12.6195C22.8633 15.6236 25.3017 18.0494 28.2932 18.0494H40.9253V14.3792H28.2932C27.3254 14.3792 26.5335 13.5873 26.5335 12.6195C26.5335 11.6517 27.3254 10.8598 28.2932 10.8598H40.9253V7.18959H28.2932C27.3254 7.18959 26.5335 6.39773 26.5335 5.4299C26.5335 4.46207 27.3254 3.6702 28.2932 3.6702H35.4074V-1.52588e-05L28.2932 -1.52588e-05Z" fill="white"/>
<path d="M105.456 -1.52588e-05V9.0247C105.456 11.9785 103.055 14.3792 100.101 14.3792C97.1476 14.3792 94.7469 11.9785 94.7469 9.0247H91.0767C91.0767 14.0147 95.124 18.0494 100.101 18.0494C105.079 18.0494 109.126 14.0021 109.126 9.0247V-1.52588e-05H105.456Z" fill="white"/>
<path d="M5.42991 0C2.43843 0 0 2.43843 0 5.42991C0 8.42139 2.43843 10.8598 5.42991 10.8598H11.0107H12.6195C13.5873 10.8598 14.3792 11.6517 14.3792 12.6195C14.3792 13.5873 13.5873 14.3792 12.6195 14.3792H5.50533V18.0494H12.6195C15.6236 18.0494 18.0494 15.611 18.0494 12.6195C18.0494 9.61547 15.611 7.18961 12.6195 7.18961H7.03877H5.42991C4.46208 7.18961 3.67022 6.39774 3.67022 5.42991C3.67022 4.46208 4.46208 3.67022 5.42991 3.67022H15.0454V0L5.42991 0Z" fill="white"/>
<path d="M70.174 14.3918C69.1559 14.3918 68.3389 15.2088 68.3389 16.2269C68.3389 17.245 69.1559 18.062 70.174 18.062C71.1921 18.062 72.0091 17.245 72.0091 16.2269C72.0091 15.2088 71.1921 14.3918 70.174 14.3918Z" fill="#EC2426"/>
<path d="M47.4362 3.6702C48.4543 3.6702 49.2713 2.8532 49.2713 1.83509C49.2713 0.816986 48.4543 -1.52588e-05 47.4362 -1.52588e-05C46.4181 -1.52588e-05 45.6011 0.816986 45.6011 1.83509C45.6011 2.8532 46.4181 3.6702 47.4362 3.6702Z" fill="#EC2426"/>
<path d="M39.0778 3.6702C40.0959 3.6702 40.9129 2.8532 40.9129 1.83509C40.9129 0.816986 40.0959 -1.52588e-05 39.0778 -1.52588e-05C38.0597 -1.52588e-05 37.2427 0.816986 37.2427 1.83509C37.2427 2.8532 38.0597 3.6702 39.0778 3.6702Z" fill="#EC2426"/>
<path d="M101.937 3.6702C102.955 3.6702 103.772 2.8532 103.772 1.83509C103.772 0.816986 102.955 -1.52588e-05 101.937 -1.52588e-05C100.919 -1.52588e-05 100.102 0.816986 100.102 1.83509C100.102 2.8532 100.919 3.6702 101.937 3.6702Z" fill="#EC2426"/>
<path d="M1.83511 14.3918C0.817001 14.3918 0 15.2088 0 16.2269C0 17.245 0.817001 18.062 1.83511 18.062C2.85322 18.062 3.67022 17.245 3.67022 16.2269C3.67022 15.2088 2.85322 14.3918 1.83511 14.3918Z" fill="#EC2426"/>
<path d="M66.9313 25.6161H1.5335C1.42038 25.6161 1.31982 25.5155 1.31982 25.4024C1.31982 25.2893 1.42038 25.1887 1.5335 25.1887H66.9313C67.0444 25.1887 67.1449 25.2893 67.1449 25.4024C67.1449 25.5155 67.0444 25.6161 66.9313 25.6161Z" fill="white"/>
<path d="M72.3109 25.3396C72.3109 26.1063 71.7327 26.6217 71.1169 26.6217C70.7901 26.6217 70.5135 26.5211 70.3124 26.3577V26.5462H69.6714V23.0394H70.3124V24.3089C70.5135 24.133 70.7901 24.045 71.1169 24.045C71.7327 24.045 72.3109 24.5729 72.3109 25.3396ZM71.695 25.3396C71.695 24.8871 71.4059 24.6106 71.0163 24.6106C70.6644 24.6106 70.325 24.8997 70.325 25.3396C70.325 25.7795 70.6644 26.0686 71.0163 26.0686C71.4059 26.0686 71.695 25.7921 71.695 25.3396Z" fill="white"/>
<path d="M73.8441 27.3884H73.1276L73.5173 26.4834L72.5117 24.1204H73.2282L73.8692 25.679L74.5479 24.1204H75.2644L73.8566 27.3884H73.8441Z" fill="white"/>
<path d="M80.129 24.9248C80.129 25.8801 79.3749 26.6217 78.407 26.6217C77.4392 26.6217 76.6851 25.8675 76.6851 24.9248C76.6851 23.9821 77.4392 23.2154 78.407 23.2154C79.3749 23.2154 80.129 23.9821 80.129 24.9248ZM79.4629 24.9248C79.4629 24.2964 78.9978 23.8439 78.407 23.8439C77.8163 23.8439 77.3512 24.3089 77.3512 24.9248C77.3512 25.5407 77.8163 26.0058 78.407 26.0058C78.9978 26.0058 79.4629 25.5533 79.4629 24.9248Z" fill="#EC2426"/>
<path d="M83.6986 26.5588H83.1456L81.3356 24.4598V26.5588H80.6694V23.2908H81.2225L83.0324 25.4402V23.2908H83.6986V26.5588Z" fill="#EC2426"/>
<path d="M86.8663 26.5588H84.3901V23.2908H86.8537V23.8942H85.0437V24.6232H86.7154V25.2139H85.0437V25.9555H86.8663V26.5588Z" fill="#EC2426"/>
<path d="M87.4824 26.5588V23.2908H88.1486V26.5588H87.4824Z" fill="#EC2426"/>
<path d="M91.3535 25.1888L91.9945 25.3145C91.8311 26.1566 91.1775 26.6217 90.3857 26.6217C89.4304 26.6217 88.6763 25.8801 88.6763 24.9123C88.6763 23.9444 89.4304 23.2028 90.3857 23.2028C91.165 23.2028 91.8311 23.6805 91.9945 24.4598L91.3535 24.6357C91.2278 24.0701 90.8382 23.8187 90.3857 23.8187C89.8075 23.8187 89.3424 24.2838 89.3424 24.8997C89.3424 25.5156 89.8075 25.9932 90.3857 25.9932C90.8382 25.9932 91.2278 25.7418 91.3535 25.1762V25.1888Z" fill="#EC2426"/>
<path d="M97.3615 26.5588H96.7205V24.686L95.7024 26.5588H95.4007L94.37 24.686V26.5588H93.729V23.2908H94.3072L95.539 25.5407L96.7833 23.2908H97.3615V26.5588Z" fill="#EC2426"/>
<path d="M100.529 26.5588H98.0527V23.2908H100.516V23.8942H98.7063V24.6232H100.378V25.2139H98.7063V25.9555H100.529V26.5588Z" fill="#EC2426"/>
<path d="M102.339 23.2908C103.42 23.2908 104.136 23.9444 104.136 24.9248C104.136 25.9052 103.42 26.5588 102.339 26.5588H101.132V23.2908H102.339ZM102.339 25.9555C103.018 25.9555 103.47 25.5533 103.47 24.9248C103.47 24.2964 103.018 23.8942 102.339 23.8942H101.798V25.9555H102.339Z" fill="#EC2426"/>
<path d="M104.677 26.5588V23.2908H105.343V26.5588H104.677Z" fill="#EC2426"/>
<path d="M108.41 26.5588L108.133 25.8675H106.688L106.399 26.5588H105.682L107.09 23.2908H107.706L109.114 26.5588H108.397H108.41ZM107.404 24.0953L106.926 25.2642H107.882L107.404 24.0953Z" fill="#EC2426"/>
</g>
<defs>
<clipPath id="clip0_66_1167">
<rect width="109.126" height="27.3884" fill="white"/>
</clipPath>
</defs>
</svg>
